<?xml version="1.0" encoding="iso-8859-1"?>
<!-- Generator: Adobe Illustrator 19.0.0, SVG Export Plug-In . SVG Version: 6.00 Build 0)  -->
<svg version="1.1" id="Layer_1" xmlns="http://www.w3.org/2000/svg" xmlns:xlink="http://www.w3.org/1999/xlink" x="0px" y="0px"
	 viewBox="0 0 295.24 295.24" style="enable-background:new 0 0 295.24 295.24;" xml:space="preserve">
<g>
	<g>
		<g>
			<path d="M281.338,66.591c-0.257-0.6-0.386-1.229-0.386-1.876v-7.571c0-5.252-4.271-9.524-9.524-9.524h-9.524L0,100.877v35.405
				l14.286,7.143l9.524-4.762l7.186,3.595c-4.557,9.576-7.186,20.252-7.186,31.552c0,40.7,33.11,73.81,73.81,73.81
				s73.81-33.11,73.81-73.81c0-11.324-2.638-22.019-7.214-31.614l2.452,1.224l9.524-4.762l9.524,4.762l9.524-4.762l9.524,4.762
				l9.524-4.762l9.524,4.762l9.89-4.943l18.681,6.229v-17.324l4.129,3.095c2.457,1.848,5.5,2.862,8.571,2.862h15.871
				c7.876,0,14.286-6.41,14.286-14.286V99.03L281.338,66.591z M97.619,238.096c-35.448,0-64.286-28.838-64.286-64.286
				c0-35.448,28.838-64.286,64.286-64.286s64.286,28.838,64.286,64.286S133.067,238.096,97.619,238.096z M242.857,131.487
				L242.857,131.487l-9.89-3.295l-9.157,4.581l-9.524-4.762l-9.524,4.762l-9.524-4.762l-9.524,4.762l-9.524-4.762l-9.524,4.762
				l-9.524-4.762l-1.271,0.638c-13.519-17.396-34.571-28.648-58.252-28.648c-24.471,0-46.138,12.019-59.576,30.414l-4.71,2.357
				l-9.524-4.762l-9.524,4.762l-4.762-2.381v-21.738L210.942,67.62l-1.233,0.352l9.962,34.876l23.186,17.39V131.487z
				 M285.715,119.049h-0.001c0,2.629-2.138,4.762-4.762,4.762h-15.871c-1.019,0-2.033-0.338-2.857-0.952l-34.276-25.705
				l-8.91-31.176l43.348-8.833h9.043v7.571c0,1.938,0.391,3.833,1.157,5.624l13.129,30.638V119.049z"/>
			<path d="M231.181,73.011l18.652,37.3l28.514-7.129l-18.652-37.3L231.181,73.011z M254.933,99.215l-9.919-19.843l9.581-2.395
				l9.919,19.843L254.933,99.215z"/>
		</g>
	</g>
</g>
<g>
</g>
<g>
</g>
<g>
</g>
<g>
</g>
<g>
</g>
<g>
</g>
<g>
</g>
<g>
</g>
<g>
</g>
<g>
</g>
<g>
</g>
<g>
</g>
<g>
</g>
<g>
</g>
<g>
</g>
</svg>
