<?xml version="1.0" encoding="iso-8859-1"?>
<!-- Generator: Adobe Illustrator 19.0.0, SVG Export Plug-In . SVG Version: 6.00 Build 0)  -->
<svg version="1.1" id="Layer_1" xmlns="http://www.w3.org/2000/svg" xmlns:xlink="http://www.w3.org/1999/xlink" x="0px" y="0px"
	 viewBox="0 0 295.238 295.238" style="enable-background:new 0 0 295.238 295.238;" xml:space="preserve">
<g>
	<g>
		<g>
			<path d="M161.903,33.333h0.001L156.413,0h-17.59L133.4,32.552l-0.062,105.543h-14.29v21.99l9.524,4.762v8.4l-9.524,4.762v88.657
				c0,15.757,12.814,28.571,28.571,28.571c15.757,0,28.571-12.814,28.571-28.571V178.01l-9.524-4.762v-8.4l9.524-4.762v-21.99
				h-14.286V33.333z M142.856,33.729L142.856,33.729l4.034-24.205h1.457l4.033,24.205v104.367h-9.524V33.729z M166.666,147.619
				v6.581l-9.524,4.762v20.171l9.524,4.762v82.771c0,10.505-8.543,19.048-19.048,19.048s-19.048-8.543-19.048-19.048v-82.771
				l9.524-4.762v-20.171l-9.524-4.762v-6.581h4.762h28.571H166.666z"/>
			<rect x="142.856" y="190.476" width="9.524" height="80.952"/>
			<path d="M66.666,40.067l5.1-5.1L65.937,0H38.823l-5.829,34.967l5.1,5.1v98.029H23.809v21.99l9.524,4.762v8.4l-9.524,4.762v88.657
				c0,15.757,12.814,28.571,28.571,28.571c15.757,0,28.571-12.814,28.571-28.571V178.01l-9.524-4.762v-8.4l9.524-4.762v-21.99
				H66.666V40.067z M46.89,9.524H57.87L61.567,31.7l-4.424,4.424v101.971h-9.524V36.124L43.195,31.7L46.89,9.524z M71.429,147.619
				v6.581l-9.524,4.762v20.171l9.524,4.762v82.771c0,10.505-8.543,19.048-19.048,19.048s-19.048-8.543-19.048-19.048v-82.771
				l9.524-4.762v-20.171l-9.524-4.762v-6.581h4.762h28.571H71.429z"/>
			<rect x="47.619" y="190.476" width="9.524" height="80.952"/>
			<path d="M271.428,160.086v-21.99h-14.286v-76.19h4.762V0h-38.095v61.905h4.762v76.19h-14.286v21.99l9.524,4.762v8.4l-9.524,4.762
				v88.657c0,15.757,12.814,28.571,28.571,28.571s28.571-12.814,28.571-28.571V178.01l-9.524-4.762v-8.4L271.428,160.086z
				 M233.333,9.524h19.048v42.857h-4.762v85.714h-9.524V52.381h-4.762V9.524z M261.905,183.895v82.771
				c0,10.505-8.543,19.048-19.048,19.048s-19.048-8.543-19.048-19.048v-82.771l9.524-4.762v-20.171l-9.524-4.762v-6.581h4.762
				h28.571h4.762v6.581l-9.524,4.762v20.171L261.905,183.895z"/>
			<rect x="238.095" y="190.476" width="9.524" height="80.952"/>
		</g>
	</g>
</g>
<g>
</g>
<g>
</g>
<g>
</g>
<g>
</g>
<g>
</g>
<g>
</g>
<g>
</g>
<g>
</g>
<g>
</g>
<g>
</g>
<g>
</g>
<g>
</g>
<g>
</g>
<g>
</g>
<g>
</g>
</svg>
