<?xml version="1.0" encoding="iso-8859-1"?>
<!-- Generator: Adobe Illustrator 19.0.0, SVG Export Plug-In . SVG Version: 6.00 Build 0)  -->
<svg version="1.1" id="Layer_1" xmlns="http://www.w3.org/2000/svg" xmlns:xlink="http://www.w3.org/1999/xlink" x="0px" y="0px"
	 viewBox="0 0 295.238 295.238" style="enable-background:new 0 0 295.238 295.238;" xml:space="preserve">
<g>
	<g>
		<path d="M0,95.238h9.524v200h28.571v-200h115.229l-19.481,171.429h-29.081v28.571h180.952V276.19v-9.524V95.238h9.524V0H0V95.238z
			 M28.571,285.714h-9.524V95.238h9.524V285.714z M142.648,85.714l13.957-19.329l-2.195,19.329H142.648z M158.038,138.095h74.4
			l5.952,52.381h-86.305L158.038,138.095z M228.653,104.762l2.705,23.81H159.12l2.709-23.81H228.653z M162.91,95.238l3.248-28.571
			h58.161l3.248,28.571H162.91z M237.152,95.238h19.99v171.429h-0.509L237.152,95.238z M151.005,200h88.466l2.705,23.81H148.3
			L151.005,200z M147.219,233.333h96.043l3.786,33.333H143.429L147.219,233.333z M276.19,285.714L276.19,285.714H114.286v-9.524
			h18.476h124.381h0.571h18.476V285.714z M266.666,266.667V95.238h9.524v171.429H266.666z M285.714,85.714h-28.571l28.571-38.095
			V85.714z M285.714,9.525v22.223l-40.476,53.967h-9.171l-2.343-20.619l40.138-55.571H285.714z M262.114,9.524l-34.39,47.619
			h-26.348l34.39-47.619H262.114z M224.019,9.524l-34.39,47.619h-26.348l34.39-47.619H224.019z M185.924,9.524L130.9,85.714h-26.348
			l55.024-76.19H185.924z M147.829,9.524l-55.024,76.19H66.457l55.024-76.19H147.829z M109.734,9.524L54.71,85.714H38.095h-9.733
			l55.024-76.19H109.734z M9.524,9.524h23.981L9.524,42.5V9.524z M9.524,58.69L45.281,9.524h26.357l-55.024,76.19h-7.09V58.69z"/>
	</g>
</g>
<g>
</g>
<g>
</g>
<g>
</g>
<g>
</g>
<g>
</g>
<g>
</g>
<g>
</g>
<g>
</g>
<g>
</g>
<g>
</g>
<g>
</g>
<g>
</g>
<g>
</g>
<g>
</g>
<g>
</g>
</svg>
