<?xml version="1.0" encoding="iso-8859-1"?>
<!-- Generator: Adobe Illustrator 19.0.0, SVG Export Plug-In . SVG Version: 6.00 Build 0)  -->
<svg version="1.1" id="Layer_1" xmlns="http://www.w3.org/2000/svg" xmlns:xlink="http://www.w3.org/1999/xlink" x="0px" y="0px"
	 viewBox="0 0 295.24 295.24" style="enable-background:new 0 0 295.24 295.24;" xml:space="preserve">
<g>
	<g>
		<g>
			<path d="M283.381,181.41c7.914-13.514,12.152-29.052,11.843-45.01c-0.286-14.838-4.805-28.895-12.31-41.148l6-6
				c4.076-4.081,6.324-9.505,6.324-15.271c0-11.91-9.69-21.6-21.6-21.6c-4.233,0-8.267,1.233-11.733,3.486v-8.943
				c0-7.257-4.033-13.79-10.529-17.038L198.79,3.596c-4.7-2.352-9.967-3.595-15.229-3.595c-9.095,0-17.648,3.543-24.081,9.976
				l-1.886,1.886c-6.433,6.433-9.976,14.986-9.976,24.081v16.438H0v42.433l117.995,10.976c2.771,0.257,5.176,1.643,6.781,3.9
				c1.652,2.324,2.2,5.281,1.5,8.114c-2.895,11.719-3.248,23.795-1.048,35.881c1.819,10,5.419,19.348,10.381,27.781l-5.471,5.471
				c-4.081,4.081-6.329,9.505-6.329,15.271c0,11.91,9.69,21.6,21.6,21.6c5.767,0,11.195-2.248,15.271-6.329l5.481-5.481
				c10.538,6.195,22.452,10.243,35.148,11.424c1.152,0.11,2.3,0.1,3.452,0.162v33.557c0,15.757-12.814,28.571-28.571,28.571h-52.38
				c-15.757,0-28.571-12.814-28.571-28.571v-95.238c0-21.005-17.09-38.095-38.095-38.095s-38.095,17.09-38.095,38.095v62.386
				C8.195,226.506,0,236.125,0,247.62v33.333h4.762v14.286h9.524v-14.286h19.048v14.286h9.524v-14.286h4.762V247.62
				c0-11.495-8.195-21.114-19.048-23.329v-62.386c0-15.757,12.814-28.571,28.571-28.571s28.571,12.814,28.571,28.571v95.238
				c0,21.005,17.09,38.095,38.095,38.095h52.381c21.005,0,38.095-17.09,38.095-38.095v-33.576
				c13.643-0.781,26.848-4.771,38.552-11.614l5.529,5.529c4.081,4.081,9.505,6.329,15.271,6.329c11.91,0,21.6-9.69,21.6-21.6
				c0-5.767-2.248-11.195-6.329-15.271L283.381,181.41z M38.095,247.62v23.81H9.524v-23.81c0-7.876,6.41-14.286,14.286-14.286
				S38.095,239.744,38.095,247.62z M265.1,65.443c2.281-2.28,5.314-3.537,8.538-3.537c6.657,0,12.076,5.419,12.076,12.076
				c0,3.224-1.257,6.257-3.538,8.538l-4.79,4.79c-4.933-6.367-10.724-12.076-17.205-16.948L265.1,65.443z M157.143,35.944
				c0-6.552,2.552-12.71,7.186-17.348l1.886-1.886c4.633-4.633,10.795-7.186,17.348-7.186c3.79,0,7.581,0.895,10.971,2.59
				l52.586,26.29c3.243,1.624,5.262,4.89,5.262,8.519v17.771l-0.267,0.267c-6.152-3.671-12.724-6.695-19.662-8.81
				c-1.638-5.248-5.486-9.638-10.719-11.881l-23.086-9.895c-1.614-0.69-3.319-1.043-5.081-1.043h-4.486
				c-3.443,0-6.681,1.343-9.114,3.776c-2.433,2.433-3.776,5.671-3.776,9.114v6.157h-19.048V35.944z M218.181,53.148
				c-3.552-0.452-7.138-0.767-10.786-0.767h-21.681v-6.157c0-0.9,0.352-1.743,0.986-2.381c0.638-0.633,1.481-0.986,2.381-0.986
				h4.486c0.457,0,0.905,0.09,1.329,0.271l23.086,9.895C218.057,53.058,218.11,53.115,218.181,53.148z M95.238,94.11L9.524,86.139
				V61.906h85.714V94.11z M153.948,210.748c-2.281,2.281-5.314,3.538-8.538,3.538c-6.657,0-12.076-5.419-12.076-12.076
				c0-3.224,1.257-6.257,3.538-8.538l4.129-4.129c4.867,6.471,10.614,12.224,17.071,17.081L153.948,210.748z M202.195,213.95
				c-33.738-3.149-61.533-28.63-67.595-61.968c-1.957-10.752-1.643-21.486,0.924-31.89c1.367-5.529,0.276-11.329-2.981-15.914
				c-3.19-4.486-8.171-7.352-13.662-7.862l-14.119-1.319v-33.09h102.633c41.667,0,77.524,34.2,78.305,74.681
				c0.419,21.686-8.448,42.586-24.329,57.343C245.266,208.893,224.257,216.012,202.195,213.95z M273.638,214.286
				c-3.224,0-6.257-1.257-8.538-3.538l-4.138-4.138c2.376-1.781,4.69-3.667,6.886-5.705c3.767-3.5,7.095-7.362,10.138-11.419
				l4.19,4.19c2.281,2.276,3.538,5.309,3.538,8.533C285.714,208.867,280.295,214.286,273.638,214.286z"/>
			<path d="M209.524,80.953c-31.51,0-57.143,25.633-57.143,57.143s25.633,57.143,57.143,57.143s57.143-25.633,57.143-57.143
				S241.034,80.953,209.524,80.953z M209.524,185.715c-26.257,0-47.619-21.362-47.619-47.619c0-26.257,21.362-47.619,47.619-47.619
				c26.257,0,47.619,21.362,47.619,47.619C257.143,164.353,235.781,185.715,209.524,185.715z"/>
			<path d="M209.524,114.286c-13.129,0-23.81,10.681-23.81,23.81c0,13.129,10.681,23.81,23.81,23.81
				c13.129,0,23.81-10.681,23.81-23.81C233.334,124.967,222.652,114.286,209.524,114.286z M209.524,152.382
				c-7.876,0-14.286-6.41-14.286-14.286s6.41-14.286,14.286-14.286c7.876,0,14.286,6.41,14.286,14.286
				C223.81,145.972,217.4,152.382,209.524,152.382z"/>
		</g>
	</g>
</g>
<g>
</g>
<g>
</g>
<g>
</g>
<g>
</g>
<g>
</g>
<g>
</g>
<g>
</g>
<g>
</g>
<g>
</g>
<g>
</g>
<g>
</g>
<g>
</g>
<g>
</g>
<g>
</g>
<g>
</g>
</svg>
