<?xml version="1.0" encoding="iso-8859-1"?>
<!-- Generator: Adobe Illustrator 19.0.0, SVG Export Plug-In . SVG Version: 6.00 Build 0)  -->
<svg version="1.1" id="Layer_1" xmlns="http://www.w3.org/2000/svg" xmlns:xlink="http://www.w3.org/1999/xlink" x="0px" y="0px"
	 viewBox="0 0 295.238 295.238" style="enable-background:new 0 0 295.238 295.238;" xml:space="preserve">
<g>
	<g>
		<path d="M247.619,266.667c-6.2,0-11.438,3.995-13.41,9.524H204.76v-9.524h-4.761v-38.095h9.524v-42.857h-9.524v-47.619h2.943
			l6.581-13.162v-15.41h-47.619v15.41l6.581,13.162h2.943v47.619l-85.714,0.005V47.62h109.524c7.876,0,14.286-6.41,14.286-14.286
			c0-7.876-6.41-14.286-14.286-14.286h-24.733c-1.076,0-2.133-0.371-2.976-1.043l-13.376-10.7C148.267,2.595,140.871,0,133.333,0
			H85.713C56.833,0,33.333,23.5,33.333,52.381v128.571c0,28.881,23.5,52.381,52.381,52.381h29.01c3.771,0,7.429-1.105,10.567-3.2
			l8.633-5.757c0.557-0.371,1.205-0.567,1.871-0.567h21.348c0.89,0,1.757,0.362,2.381,0.986c2.438,2.433,5.676,3.776,9.119,3.776
			h2.786v38.095h-4.762v9.524h-29.448c-1.971-5.529-7.21-9.524-13.41-9.524c-7.876,0-14.286,6.41-14.286,14.286
			c0,7.876,6.41,14.286,14.286,14.286c6.2,0,11.438-3.995,13.41-9.524h29.448v9.524h38.095v-9.524h29.448
			c1.971,5.529,7.21,9.524,13.41,9.524c7.876,0,14.286-6.41,14.286-14.286C261.906,273.076,255.494,266.667,247.619,266.667z
			 M123.809,285.714c-2.624,0-4.762-2.138-4.762-4.762c0-2.624,2.138-4.762,4.762-4.762s4.762,2.138,4.762,4.762
			C128.57,283.576,126.432,285.714,123.809,285.714z M171.428,122.686v-3.638h0.001h28.571v3.638l-2.943,5.886h-6.581v10.567
			l-9.524,2.381v-12.948h-6.581L171.428,122.686z M180.952,165.328v-13.99l9.524-2.381v13.99L180.952,165.328z M190.476,172.767
			v12.948h-9.524v-10.567L190.476,172.767z M168.643,219.049v-0.001c-0.9,0-1.748-0.352-2.381-0.986
			c-2.438-2.433-5.676-3.776-9.119-3.776h-21.348c-2.552,0-5.024,0.748-7.152,2.167l-8.638,5.757c-1.567,1.048-3.395,1.6-5.281,1.6
			h-29.01c-23.629,0-42.857-19.229-42.857-42.857V52.381c0-23.629,19.229-42.857,42.857-42.857h47.619
			c5.386,0,10.667,1.852,14.876,5.219l13.376,10.7c2.519,2.019,5.69,3.129,8.919,3.129h24.733c2.624,0,4.762,2.138,4.762,4.762
			c0,2.624-2.138,4.762-4.762,4.762H85.713c-5.252,0-9.524,4.271-9.524,9.524v138.095c0,5.252,4.271,9.524,9.524,9.524h85.714
			h28.572v23.81h-28.571H168.643z M180.952,255.804v-13.99l9.524-2.381v13.99L180.952,255.804z M190.476,263.243v3.424h-9.524
			v-1.043L190.476,263.243z M180.952,231.995v-3.424h9.524v1.043L180.952,231.995z M195.238,285.714h-19.048v-9.524h19.048V285.714z
			 M247.619,285.714c-2.624,0-4.762-2.138-4.762-4.762c0-2.624,2.138-4.762,4.762-4.762c2.624,0,4.762,2.138,4.762,4.762
			C252.38,283.576,250.242,285.714,247.619,285.714z"/>
	</g>
</g>
<g>
</g>
<g>
</g>
<g>
</g>
<g>
</g>
<g>
</g>
<g>
</g>
<g>
</g>
<g>
</g>
<g>
</g>
<g>
</g>
<g>
</g>
<g>
</g>
<g>
</g>
<g>
</g>
<g>
</g>
</svg>
