<?xml version="1.0" encoding="iso-8859-1"?>
<!-- Generator: Adobe Illustrator 19.0.0, SVG Export Plug-In . SVG Version: 6.00 Build 0)  -->
<svg version="1.1" id="Layer_1" xmlns="http://www.w3.org/2000/svg" xmlns:xlink="http://www.w3.org/1999/xlink" x="0px" y="0px"
	 viewBox="0 0 295.238 295.238" style="enable-background:new 0 0 295.238 295.238;" xml:space="preserve">
<g>
	<g>
		<g>
			<path d="M14.286,0v295.238h266.667V0H14.286z M271.429,285.714H23.809V9.524h247.619V285.714z"/>
			<path d="M50,238.095c9.19,0,16.667-7.476,16.667-16.667v-35.714c0-2.629,2.133-4.762,4.762-4.762
				c2.629,0,4.762,2.133,4.762,4.762v2.381c0,9.19,7.476,16.667,16.667,16.667c9.191,0,16.667-7.476,16.667-16.667v-16.667
				c0-2.629,2.133-4.762,4.762-4.762h9.524v2.943l8.552,4.271c-5.324,3.505-8.552,9.41-8.552,15.9v57.838
				c0,13.129,10.681,23.81,23.81,23.81c13.129,0,23.81-10.681,23.81-23.81V200h4.762c2.629,0,4.762,2.133,4.762,4.762v16.667
				c0,9.19,7.476,16.667,16.667,16.667c9.191,0,16.667-7.476,16.667-16.667v-33.333c0-3.938,3.205-7.143,7.143-7.143
				c3.938,0,7.143,3.205,7.143,7.143v19.048c0,9.19,7.476,16.667,16.667,16.667c9.191,0,16.667-7.476,16.667-16.667V108.6V100
				V52.381h-23.81V23.81H57.143v4.762H50c-9.19,0-16.667,7.476-16.667,16.667v176.19C33.333,230.619,40.809,238.095,50,238.095z
				 M156.643,181.263c3.243,1.624,5.262,4.89,5.262,8.519v57.838c0,7.876-6.41,14.286-14.286,14.286
				c-7.876,0-14.286-6.41-14.286-14.286v-57.838c0-3.633,2.019-6.895,5.262-8.519l4.262-2.129v-10.648l-9.524-4.762v-6.581h28.571
				v6.581h0.001l-9.524,4.762v10.648L156.643,181.263z M245.237,214.286c-3.938,0-7.143-3.205-7.143-7.143v-19.048
				c0-9.19-7.476-16.667-16.667-16.667c-9.191,0-16.667,7.476-16.667,16.667v33.333c0,3.938-3.205,7.143-7.143,7.143
				s-7.143-3.205-7.143-7.143v-16.667c0-7.876-6.41-14.286-14.286-14.286h-4.762v-0.695c0-6.49-3.224-12.4-8.552-15.9l8.552-4.271
				v-21.99h-19.048v-15.21l100-21.738v96.472h0.002C252.38,211.081,249.176,214.286,245.237,214.286z M66.666,33.333h161.905v47.619
				H66.666V33.333z M42.856,45.238L42.856,45.238c0.001-3.938,3.206-7.143,7.144-7.143h7.143v52.381h180.952V61.905h14.286V100
				v0.924l-109.524,23.81v22.886H123.81v9.524h-9.524c-7.876,0-14.286,6.41-14.286,14.286v16.667c0,3.938-3.205,7.143-7.143,7.143
				s-7.143-3.205-7.143-7.143v-2.381c0-7.876-6.41-14.286-14.286-14.286c-7.876,0-14.286,6.41-14.286,14.286v35.714
				c0,3.938-3.205,7.143-7.143,7.143c-3.938,0-7.143-3.205-7.143-7.143V45.238z"/>
		</g>
	</g>
</g>
<g>
</g>
<g>
</g>
<g>
</g>
<g>
</g>
<g>
</g>
<g>
</g>
<g>
</g>
<g>
</g>
<g>
</g>
<g>
</g>
<g>
</g>
<g>
</g>
<g>
</g>
<g>
</g>
<g>
</g>
</svg>
