<?xml version="1.0" encoding="iso-8859-1"?>
<!-- Generator: Adobe Illustrator 19.0.0, SVG Export Plug-In . SVG Version: 6.00 Build 0)  -->
<svg version="1.1" id="Layer_1" xmlns="http://www.w3.org/2000/svg" xmlns:xlink="http://www.w3.org/1999/xlink" x="0px" y="0px"
	 viewBox="0 0 295.239 295.239" style="enable-background:new 0 0 295.239 295.239;" xml:space="preserve">
<g>
	<g>
		<path d="M196.558,124.462l8.205-8.205V95.238h-14.286V61.133L170.101,0h-44.957l-20.381,61.133v34.105H90.477v21.019l8.205,8.205
			c-7.533,12.1-32.014,54.848-32.014,99.348c0,26.329,3.762,46.405,6.914,58.61c1.948,7.548,8.733,12.819,16.495,12.819h11.952
			c9.381,0,17.019-7.638,17.019-17.019c0-1.786-0.281-3.552-0.833-5.257c-2.038-6.262-8.69-29.343-8.69-63.438
			c0-32.081,28.2-67.243,38.095-78.595c9.9,11.348,38.095,46.471,38.095,78.595c0,34.095-6.652,57.176-8.69,63.438
			c-0.552,1.705-0.833,3.471-0.833,5.257c0,9.381,7.638,17.019,17.019,17.019h11.952c7.762,0,14.548-5.271,16.495-12.819
			c3.152-12.205,6.914-32.281,6.914-58.61C228.571,179.31,204.091,136.562,196.558,124.462z M152.381,9.524h10.852l17.719,53.152
			v10.481c-6.924-8.581-17.052-14.471-28.571-15.752V41.981c5.529-1.971,9.524-7.21,9.524-13.41s-3.995-11.438-9.524-13.41V9.524z
			 M147.62,23.81c2.624,0,4.762,2.138,4.762,4.762c0,2.624-2.138,4.762-4.762,4.762c-2.624,0-4.762-2.138-4.762-4.762
			C142.857,25.948,144.995,23.81,147.62,23.81z M100.001,209.524c0,35.5,7.01,59.786,9.157,66.376
			c0.248,0.767,0.367,1.524,0.367,2.319c0,4.133-3.362,7.495-7.495,7.495H90.076c-3.419,0-6.414-2.333-7.276-5.676
			c-3.014-11.671-6.61-30.9-6.61-56.229c0-28.233,10.905-56.39,20.086-75.11l19.786,9.895
			C107.357,173.786,100.001,191.814,100.001,209.524z M142.859,121.934c-3.443,3.752-12.762,14.381-21.833,28.495l-20.395-10.195
			c4.567-8.471,7.976-13.6,8.081-13.757l2.19-3.257l-10.901-10.906v-7.552h9.229l33.629,4.205V121.934z M114.287,95.797V62.676
			l17.719-53.152h10.852v5.638c-5.529,1.971-9.524,7.21-9.524,13.41c0,6.2,3.995,11.438,9.524,13.41v24.686h4.762
			c16.967,0,30.981,12.748,33.043,29.167l-33.043,4.129L114.287,95.797z M152.382,121.933c0,0,0-12.966,0-12.966l33.633-4.205h9.224
			v7.552l-10.905,10.905l2.195,3.257c0.105,0.157,3.519,5.281,8.086,13.752l-20.4,10.2
			C165.144,136.314,155.825,125.685,152.382,121.933z M212.438,280.038c-0.862,3.343-3.857,5.676-7.276,5.676h-11.952
			c-4.133,0-7.495-3.362-7.495-7.495c0-0.795,0.119-1.552,0.367-2.31c2.148-6.6,9.157-30.886,9.157-66.386
			c0-17.71-7.357-35.738-16.062-50.929l19.795-9.9c9.181,18.705,20.076,46.848,20.076,75.114
			C219.049,249.138,215.453,268.367,212.438,280.038z"/>
	</g>
</g>
<g>
</g>
<g>
</g>
<g>
</g>
<g>
</g>
<g>
</g>
<g>
</g>
<g>
</g>
<g>
</g>
<g>
</g>
<g>
</g>
<g>
</g>
<g>
</g>
<g>
</g>
<g>
</g>
<g>
</g>
</svg>
