<?xml version="1.0" encoding="iso-8859-1"?>
<!-- Generator: Adobe Illustrator 19.0.0, SVG Export Plug-In . SVG Version: 6.00 Build 0)  -->
<svg version="1.1" id="Layer_1" xmlns="http://www.w3.org/2000/svg" xmlns:xlink="http://www.w3.org/1999/xlink" x="0px" y="0px"
	 viewBox="0 0 295.238 295.238" style="enable-background:new 0 0 295.238 295.238;" xml:space="preserve">
<g>
	<g>
		<g>
			<path d="M285.714,14.285V0h-9.524v14.286h-19.048V0h-9.524v14.286h-9.524v23.81c0,14.129,10.319,25.862,23.81,28.143v202.81
				c0,9.19-7.476,16.667-16.667,16.667s-16.667-7.476-16.667-16.667V26.19C228.57,11.747,216.822,0,202.38,0h-23.81
				c-14.443,0-26.19,11.748-26.19,26.19v2.381h-19.048c-7.876,0-14.286,6.41-14.286,14.286v24.486
				c-8.19,2.129-14.286,9.524-14.286,18.371v33.333c0,5.252,4.271,9.524,9.524,9.524h9.524v80.952c0,6.2,3.995,11.438,9.524,13.41
				v19.924h4.762v19.048h14.286v33.333h9.524v-33.333h14.286v-19.048h4.762v-19.924c5.529-1.971,9.524-7.21,9.524-13.41V105.348
				l4.619-18.476l0.143-44.014c0-7.876-6.41-14.286-14.286-14.286h-19.048V26.19c0-9.19,7.476-16.667,16.667-16.667h23.81
				c9.19,0,16.667,7.476,16.667,16.667v242.857c0,14.443,11.748,26.19,26.19,26.19c14.442,0,26.19-11.748,26.19-26.19V66.238
				c13.49-2.276,23.81-14.01,23.81-28.143v-23.81H285.714z M123.81,119.047h-9.524V85.714c0-3.51,1.929-6.548,4.762-8.2v8.2
				l4.762,19.633V119.047z M166.667,252.381h-19.048v-9.524h19.048V252.381z M171.429,233.334h-28.571v-9.524h28.571V233.334z
				 M180.951,38.095c2.625,0,4.763,2.138,4.763,4.762v42.271l-4.619,18.476l-0.143,105.919c0,2.624-2.138,4.762-4.762,4.762h-4.762
				v-100h-9.524v100h-9.524v-100h-9.524v100h-4.762c-2.624,0-4.762-2.138-4.762-4.762V104.762l-4.762-19.633V42.857
				c0-2.624,2.138-4.762,4.762-4.762H180.951z M266.666,57.143c-10.505,0-19.048-8.543-19.048-19.048V23.81h38.095v14.285h0.001
				C285.714,48.6,277.171,57.143,266.666,57.143z"/>
			<path d="M47.619,152.381H0v142.857h47.619V276.19h14.286v-9.524H47.619v-9.524h23.81v-9.524h-23.81v-9.524h33.333v-9.524H47.619
				v-9.524h42.857v-9.524H47.619V200H100v-9.524H47.619v-9.524h61.905v-9.524H47.619V152.381z M38.096,190.476L38.096,190.476
				H19.048V200h19.048v9.524H19.048v9.524h19.048v9.524H19.048v9.524h19.048v9.524H19.048v9.524h19.048v9.524H19.048v9.524h19.048
				v9.524H9.524v-123.81h28.571v9.524H19.048v9.524h19.048V190.476z"/>
			<path d="M19.048,104.761v0.001v19.048h47.619v-19.048h11.495l7.552-7.552V74.22l-7.552-7.552h-6.733V49.833l-17.61-11.738h-6.2V0
				h-9.524v38.095H31.89L14.286,49.833v16.833H7.552L0,74.219v22.99l7.552,7.552H19.048z M28.571,114.286v-9.524h28.571v9.524
				H28.571z M23.81,54.929l10.967-7.31h16.162l10.967,7.31v11.738H23.81V54.929z M9.523,78.162L9.523,78.162l1.972-1.971h2.79
				h57.143h2.79l1.971,1.971v15.105l-1.971,1.971h-7.552v-9.524h-9.524v9.524h-9.524v-9.524h-9.524v9.524H28.57v-9.524h-9.524v9.524
				h-7.552l-1.971-1.971V78.162z"/>
		</g>
	</g>
</g>
<g>
</g>
<g>
</g>
<g>
</g>
<g>
</g>
<g>
</g>
<g>
</g>
<g>
</g>
<g>
</g>
<g>
</g>
<g>
</g>
<g>
</g>
<g>
</g>
<g>
</g>
<g>
</g>
<g>
</g>
</svg>
