<?xml version="1.0" encoding="iso-8859-1"?>
<!-- Generator: Adobe Illustrator 19.0.0, SVG Export Plug-In . SVG Version: 6.00 Build 0)  -->
<svg version="1.1" id="Layer_1" xmlns="http://www.w3.org/2000/svg" xmlns:xlink="http://www.w3.org/1999/xlink" x="0px" y="0px"
	 viewBox="0 0 295.238 295.238" style="enable-background:new 0 0 295.238 295.238;" xml:space="preserve">
<g>
	<g>
		<g>
			<rect x="223.81" y="80.952" width="23.81" height="9.524"/>
			<rect x="223.81" y="95.238" width="23.81" height="9.524"/>
			<rect x="190.476" y="80.952" width="23.81" height="9.524"/>
			<rect x="190.476" y="95.238" width="23.81" height="9.524"/>
			<path d="M280.267,53.481C276.11,23.248,249.876,0,219.048,0s-57.062,23.248-61.219,53.481l-14.971,4.99v3.433
				c0,9.362,1.748,18.652,5.095,27.338l-76.524-3.324v-4.967h-9.524v4.552v43.281v4.548h9.524v-4.967l100.067-4.352l-0.005,9.319
				h-14.348v33.333h14.324l-0.038,57.143c0,24.652,18.829,44.981,42.857,47.376v5.005c0,5.252-4.271,9.524-9.524,9.524h-57.143
				c-10.505,0-19.048-8.543-19.048-19.048V176.19c0-15.757-12.814-28.571-28.571-28.571s-28.571,12.814-28.571,28.571v90.476
				c0,10.505-8.543,19.048-19.048,19.048s-19.048-8.543-19.048-19.048V71c13.49-2.276,23.81-14.01,23.81-28.143V23.81h-9.524V4.762
				h-9.524V23.81H19.048V4.762H9.524V23.81H0v19.048C0,56.986,10.319,68.719,23.81,71v195.667c0,15.757,12.814,28.571,28.571,28.571
				c15.757,0,28.571-12.814,28.571-28.571V176.19c0-10.505,8.543-19.048,19.048-19.048s19.048,8.543,19.048,19.048v90.476
				c0,15.757,12.814,28.571,28.571,28.571h57.143c10.505,0,19.048-8.543,19.048-19.048v-5.005
				c24.029-2.395,42.857-22.729,42.857-47.376V121.152c18.143-14.567,28.571-35.976,28.571-59.248v-3.433L280.267,53.481z
				 M171.471,157.143h-4.804v-14.286h4.814L171.471,157.143z M28.572,61.905c-8.852,0-16.243-6.095-18.372-14.286h23.133v-9.524
				H9.524v-4.762h38.095v4.762h-4.762v9.524h4.086C44.814,55.809,37.424,61.905,28.572,61.905z M171.429,114.486l-100,4.348V95.448
				l100,4.348V114.486z M171.429,84.781v5.49l-12.886-0.566c-3.533-7.657-5.662-15.943-6.095-24.395L177,57.114L171.429,84.781z
				 M188.262,246.163c-4.576-6.292-7.31-14.001-7.31-22.353v-80.276c8.195,2.129,14.286,9.524,14.286,18.371v65.81
				c0,2.943-0.695,5.886-2.014,8.519L188.262,246.163z M219.046,261.906c-9.005,0-17.281-3.157-23.81-8.405l6.505-13.01
				c1.971-3.943,3.019-8.362,3.019-12.776v-65.81c0-14.129-10.319-25.862-23.81-28.143v-10.157v-4.557h0.002h76.19v14.714
				c-13.49,2.276-23.81,14.01-23.81,28.143v65.81c0,4.414,1.048,8.833,3.019,12.776l6.505,13.01
				C236.327,258.749,228.051,261.906,219.046,261.906z M257.143,223.809c0,8.353-2.733,16.062-7.31,22.348l-4.962-9.929
				c-1.319-2.629-2.014-5.571-2.014-8.514v-65.81c0-8.848,6.09-16.243,14.286-18.371V223.809z M257.144,109.524h-0.001h-76.19
				V90.676v-4.49l7.9-39.5c0.443-2.219,2.405-3.829,4.671-3.829h51.048c2.267,0,4.229,1.61,4.667,3.829l7.905,39.5V109.524z
				 M258.576,44.82c-1.324-6.652-7.214-11.486-14.005-11.486h-51.048c-6.79,0-12.681,4.833-14.005,11.486l-0.31,1.538l-11.076,3.69
				c5.435-23.234,26.463-40.524,50.916-40.524c24.452,0,45.481,17.29,50.914,40.524l-11.081-3.695L258.576,44.82z M266.667,108.343
				V85.714L261.01,57.1l24.624,8.205C284.81,81.662,278.043,96.762,266.667,108.343z"/>
		</g>
	</g>
</g>
<g>
</g>
<g>
</g>
<g>
</g>
<g>
</g>
<g>
</g>
<g>
</g>
<g>
</g>
<g>
</g>
<g>
</g>
<g>
</g>
<g>
</g>
<g>
</g>
<g>
</g>
<g>
</g>
<g>
</g>
</svg>
