<?xml version="1.0" encoding="iso-8859-1"?>
<!-- Generator: Adobe Illustrator 19.0.0, SVG Export Plug-In . SVG Version: 6.00 Build 0)  -->
<svg version="1.1" id="Layer_1" xmlns="http://www.w3.org/2000/svg" xmlns:xlink="http://www.w3.org/1999/xlink" x="0px" y="0px"
	 viewBox="0 0 295.134 295.134" style="enable-background:new 0 0 295.134 295.134;" xml:space="preserve">
<g>
	<g>
		<g>
			<path d="M274.229,111.557l-26.714-8.01V89.862l-32.21-16.105h-15.41v-4.762c0-7.876-6.41-14.286-14.286-14.286h-9.524
				c-7.876,0-14.286,6.41-14.286,14.286v8.962l-23.81,11.905v17.229H35.61c-11.814,0-21.429,9.614-21.429,21.429
				c0,11.814,9.614,21.429,21.429,21.429h3.681c-1.105,1.533-2.138,3.119-3.095,4.762H35.61c-0.662,0-1.314-0.024-1.967-0.076
				l-0.471,5.986c-3.014,6.957-4.705,14.61-4.705,22.662c0,31.51,25.633,57.143,57.143,57.143s57.143-25.633,57.143-57.143
				c0-5.471-0.819-10.743-2.257-15.757c2.576,3.757,6.89,6.233,11.781,6.233h87.686l4.762-4.762h21.071
				c16.176,0,29.338-13.162,29.338-29.333C295.133,126.609,286.733,115.314,274.229,111.557z M35.61,140.424
				c-6.562,0-11.905-5.338-11.905-11.905s5.343-11.905,11.905-11.905h102.38v23.81h-14.71
				c-10.071-8.862-23.233-14.286-37.671-14.286s-27.6,5.424-37.671,14.286H35.61z M85.61,230.899
				c-26.257,0-47.619-21.362-47.619-47.619c0-26.257,21.362-47.619,47.619-47.619c26.257,0,47.619,21.362,47.619,47.619
				C133.229,209.537,111.867,230.899,85.61,230.899z M131.929,149.948h6.062v9.524c0,0.452,0.09,0.876,0.133,1.314
				C136.462,156.929,134.357,153.313,131.929,149.948z M171.324,68.995c0-2.628,2.138-4.762,4.762-4.762h9.524
				c2.624,0,4.762,2.133,4.762,4.762v4.762h-19.048V68.995z M265.795,159.471h-25.014l-4.762,4.762h-83.743
				c-2.624,0-4.762-2.133-4.762-4.762v-9.524v-42.857V95.747l14.286-7.143v13.724h9.524V83.843l1.124-0.562h40.61l24.933,12.467
				v14.886l33.5,10.048c8.448,2.538,14.119,10.162,14.119,18.981C285.61,150.586,276.719,159.471,265.795,159.471z"/>
			<path d="M269.043,129.885l-17.5-5.838c-3.124-1.043-6.595-0.519-9.276,1.414c-2.676,1.933-4.276,5.052-4.276,8.352v5.838
				c0,5.676,4.619,10.295,10.295,10.295h17.505c5.676,0,10.295-4.619,10.295-10.295
				C276.086,135.214,273.257,131.286,269.043,129.885z M265.79,140.424h-17.505c-0.424,0-0.771-0.343-0.771-0.771v-5.838
				c0-0.262,0.11-0.476,0.319-0.629c0.138-0.1,0.286-0.148,0.443-0.148c0.081,0,0.167,0.014,0.252,0.043l17.5,5.838
				c0.324,0.105,0.533,0.4,0.533,0.733C266.562,140.081,266.214,140.424,265.79,140.424z"/>
			<path d="M201.29,105.695l6.157,6.157l-5.171,5.171l-5.171-5.171H161.8v42.857h52.381v-25.781l-5.171-5.171l5.171-5.171
				l6.157,6.157l6.733-6.733l-19.048-19.048L201.29,105.695z M204.657,145.185h-33.333v-23.81h21.838l11.495,11.495V145.185z"/>
			<path d="M11.381,118.547l-8.81-3.619c-1.424,3.457-2.286,7.105-2.571,10.843l9.495,0.724
				C9.705,123.757,10.338,121.081,11.381,118.547z"/>
			<path d="M21.833,106.232l-5.024-8.09c-3.176,1.971-6.019,4.419-8.438,7.267l7.257,6.167
				C17.41,109.481,19.5,107.685,21.833,106.232z"/>
			<path d="M35.61,102.328h2.381v-9.524H35.61c-2.871,0-5.733,0.343-8.51,1.019l2.257,9.252
				C31.39,102.581,33.495,102.328,35.61,102.328z"/>
			<path d="M10.138,134.656l-9.257,2.224c0.871,3.638,2.31,7.1,4.271,10.305l8.119-4.976
				C11.833,139.862,10.781,137.318,10.138,134.656z"/>
			<path d="M12.386,155.651c2.843,2.443,6.038,4.405,9.49,5.848l3.667-8.79c-2.533-1.057-4.871-2.495-6.957-4.281L12.386,155.651z"
				/>
			<polygon points="52.276,102.328 56.952,102.328 56.952,92.805 52.276,92.805 47.557,92.805 47.514,92.805 47.514,102.328 
				47.557,102.328 			"/>
			<rect x="66.562" y="92.805" width="9.438" height="9.524"/>
			<rect x="85.61" y="92.805" width="9.438" height="9.524"/>
			<rect x="104.657" y="92.805" width="9.438" height="9.524"/>
			<rect x="123.705" y="92.805" width="9.438" height="9.524"/>
		</g>
	</g>
</g>
<g>
</g>
<g>
</g>
<g>
</g>
<g>
</g>
<g>
</g>
<g>
</g>
<g>
</g>
<g>
</g>
<g>
</g>
<g>
</g>
<g>
</g>
<g>
</g>
<g>
</g>
<g>
</g>
<g>
</g>
</svg>
