<?xml version="1.0" encoding="iso-8859-1"?>
<!-- Generator: Adobe Illustrator 19.0.0, SVG Export Plug-In . SVG Version: 6.00 Build 0)  -->
<svg version="1.1" id="Layer_1" xmlns="http://www.w3.org/2000/svg" xmlns:xlink="http://www.w3.org/1999/xlink" x="0px" y="0px"
	 viewBox="0 0 295.238 295.238" style="enable-background:new 0 0 295.238 295.238;" xml:space="preserve">
<g>
	<g>
		<g>
			<path d="M135.248,59.224l-11.124-3.71l1.638-5.743c4.69-16.414-3.724-33.571-19.571-39.91l-4.519-1.805L88.348,43.59
				l-11.119-3.705L91.686,0H78.39C50.733,0,28.229,22.505,28.229,50.162c0,14.933,6.576,28.976,18.052,38.538L56.8,97.467v11.905
				l-4.762,147.771v4.762c0,18.376,14.952,33.333,33.333,33.333c18.381,0,33.333-14.957,33.333-33.333v-4.914l-4.762-147.467V96.505
				L135.248,59.224z M106.995,20.981c8.429,5.59,12.495,16.081,9.614,26.176l-1.524,5.343L97.39,46.605L106.995,20.981z
				 M109.181,257.143v4.762c0,13.129-10.681,23.81-23.81,23.81c-13.129,0-23.81-10.681-23.81-23.81v-4.609l4.762-147.771V93.01
				L52.376,81.386c-9.295-7.748-14.624-19.124-14.624-31.224c0-22.31,18.071-40.481,40.348-40.638L64.943,45.829l56.267,18.757
				l-16.79,29.386v15.704h-0.001L109.181,257.143z"/>
			<path d="M85.371,247.619c-7.876,0-14.286,6.41-14.286,14.286c0,7.876,6.41,14.286,14.286,14.286
				c7.876,0,14.286-6.41,14.286-14.286C99.657,254.029,93.248,247.619,85.371,247.619z M85.371,266.667
				c-2.624,0-4.762-2.133-4.762-4.762c0-2.629,2.138-4.762,4.762-4.762c2.624,0,4.762,2.133,4.762,4.762
				C90.133,264.534,87.995,266.667,85.371,266.667z"/>
			<path d="M68.076,55.881L60.3,79.2l37.605,12.538l7.776-23.319L68.076,55.881z M91.886,79.69l-19.538-6.51l1.748-5.252
				l19.538,6.51L91.886,79.69z"/>
			<path d="M85.371,104.762c-7.876,0-14.286,6.41-14.286,14.286V223.81c0,7.876,6.41,14.286,14.286,14.286
				c7.876,0,14.286-6.41,14.286-14.286V119.048C99.657,111.171,93.248,104.762,85.371,104.762z M90.133,223.81
				c0,2.629-2.138,4.762-4.762,4.762c-2.624,0-4.762-2.133-4.762-4.762V119.048c0-2.624,2.138-4.762,4.762-4.762
				c2.624,0,4.762,2.138,4.762,4.762V223.81z"/>
			<path d="M240.552,95.238l26.457-47.619L240.552,0h-53.219l-26.457,47.619l26.457,47.619H240.552z M192.933,9.524h42.014
				l21.162,38.095l-21.162,38.095h-42.014l-21.162-38.095L192.933,9.524z"/>
			<path d="M213.943,76.19c15.757,0,28.571-12.814,28.571-28.571c0-15.757-12.814-28.571-28.571-28.571
				s-28.571,12.814-28.571,28.571C185.372,63.376,198.186,76.19,213.943,76.19z M213.943,28.571
				c10.505,0,19.048,8.543,19.048,19.048s-8.543,19.048-19.048,19.048s-19.048-8.543-19.048-19.048S203.438,28.571,213.943,28.571z"
				/>
			<path d="M161.562,161.905h23.81v133.333h57.143V161.905h23.81v-47.619H161.562V161.905z M237.752,123.81H256.8v28.571h-14.286
				h-4.762V123.81z M199.657,123.81h28.571v28.571h-28.571V123.81z M194.895,161.905h38.095v5.619l-38.095,7.619V161.905z
				 M194.895,184.857l38.095-7.619v14.095l-38.095,7.619V184.857z M194.895,208.667l38.095-7.619v14.095l-38.095,7.619V208.667z
				 M194.895,232.476l38.095-7.619v14.095l-38.095,7.619V232.476z M194.895,256.286l38.095-7.619v14.095l-38.095,7.619V256.286z
				 M194.895,280.095l38.095-7.619v13.238h-38.095V280.095z M171.086,123.81h19.048v28.571h-4.762h-14.286V123.81z"/>
		</g>
	</g>
</g>
<g>
</g>
<g>
</g>
<g>
</g>
<g>
</g>
<g>
</g>
<g>
</g>
<g>
</g>
<g>
</g>
<g>
</g>
<g>
</g>
<g>
</g>
<g>
</g>
<g>
</g>
<g>
</g>
<g>
</g>
</svg>
