<?xml version="1.0" encoding="iso-8859-1"?>
<!-- Generator: Adobe Illustrator 19.0.0, SVG Export Plug-In . SVG Version: 6.00 Build 0)  -->
<svg version="1.1" id="Layer_1" xmlns="http://www.w3.org/2000/svg" xmlns:xlink="http://www.w3.org/1999/xlink" x="0px" y="0px"
	 viewBox="0 0 295.237 295.237" style="enable-background:new 0 0 295.237 295.237;" xml:space="preserve">
<g>
	<g>
		<g>
			<path d="M252.381,208.826c-9.438,0-18.143,3.1-25.229,8.29l-16.329-17.814h21.005l33.333-85.714h15.79v-9.524h-26.067
				l-29.319-42.643l14.5-14.5L228.16,35.016L255.746,7.43l-6.733-6.733l-27.586,27.586l-11.905-11.905L192.66,33.245
				c-8.381-3.5-17.095-5.371-25.995-5.371c-22.443,0-43.429,11.038-56.143,29.533l-32.076,46.657H66.614l-16-33.333H0v9.524h44.624
				l57.143,119.048h11.038L97.29,255.798c-1.362,4.952-2.052,10.062-2.052,15.19c0,12.986,10.567,23.552,23.548,23.552
				c7.676,0,14.89-3.757,19.295-10.048l59.638-85.19h0.19l22.224,24.248c-6.586,7.533-10.61,17.362-10.61,28.133
				c0,23.629,19.224,42.857,42.857,42.857s42.857-19.229,42.857-42.857S276.014,208.826,252.381,208.826z M190.476,54.812
				c0-3.762,1.524-7.443,4.186-10.1l14.862-14.867L226.6,46.921l-14.862,14.867c-2.7,2.695-6.286,4.181-10.105,4.181h-11.157V54.812
				z M118.371,62.798c10.933-15.905,28.99-25.4,48.295-25.4c6.476,0,12.857,1.1,19.048,3.271c-3.043,4.081-4.762,8.962-4.762,14.143
				v20.681h20.681c6.362,0,12.343-2.476,16.838-6.971l0.248-0.248l24.61,35.79H90.005L118.371,62.798z M130.276,279.036
				c-2.619,3.743-6.919,5.981-11.49,5.981c-7.733,0-14.024-6.29-14.024-14.029c0-4.276,0.576-8.538,1.705-12.671l16.21-59.014
				h63.414L130.276,279.036z M190.476,189.778h-82.719l-36.571-76.19H71.9h183.048l-29.629,76.19h-23.224H190.476z M252.381,285.017
				c-18.376,0-33.333-14.952-33.333-33.333c0-7.995,2.833-15.338,7.543-21.086l9.843,10.738c-1.948,2.981-3.1,6.529-3.1,10.348
				c0,10.505,8.543,19.048,19.048,19.048s19.048-8.543,19.048-19.048s-8.543-19.048-19.048-19.048c-3.229,0-6.224,0.881-8.89,2.305
				l-9.881-10.781c5.352-3.662,11.814-5.81,18.771-5.81c18.376,0,33.333,14.952,33.333,33.333
				C285.715,270.064,270.757,285.017,252.381,285.017z M250.333,242.393c0.657-0.143,1.343-0.233,2.048-0.233
				c5.252,0,9.524,4.271,9.524,9.524c0,5.252-4.271,9.524-9.524,9.524c-5.253,0-9.524-4.271-9.524-9.524
				c0-0.99,0.195-1.924,0.476-2.824l5.538,6.042l7.024-6.438L250.333,242.393z"/>
			<rect x="95.238" y="123.112" width="9.524" height="9.524"/>
			<rect x="114.286" y="123.112" width="114.286" height="9.524"/>
		</g>
	</g>
</g>
<g>
</g>
<g>
</g>
<g>
</g>
<g>
</g>
<g>
</g>
<g>
</g>
<g>
</g>
<g>
</g>
<g>
</g>
<g>
</g>
<g>
</g>
<g>
</g>
<g>
</g>
<g>
</g>
<g>
</g>
</svg>
