<?xml version="1.0" encoding="iso-8859-1"?>
<!-- Generator: Adobe Illustrator 19.0.0, SVG Export Plug-In . SVG Version: 6.00 Build 0)  -->
<svg version="1.1" id="Layer_1" xmlns="http://www.w3.org/2000/svg" xmlns:xlink="http://www.w3.org/1999/xlink" x="0px" y="0px"
	 viewBox="0 0 295.238 295.238" style="enable-background:new 0 0 295.238 295.238;" xml:space="preserve">
<g>
	<g>
		<g>
			<path d="M247.62,114.286V88.51c3.005-5.005,4.762-10.833,4.762-17.081c0-11.295-5.662-21.281-14.286-27.314V23.81h-38.095v20.305
				c-8.624,6.033-14.286,16.019-14.286,27.314c0,6.248,1.762,12.076,4.762,17.081v25.776H147.62V76.19
				c0-0.99-0.052-1.971-0.152-2.933l27.481-35.329c3.871-4.981,6.005-11.205,6.005-17.51C180.953,9.162,171.791,0,160.534,0
				c-6.652,0-12.91,3.257-16.729,8.71l-24.757,35.367L94.291,8.71C90.472,3.257,84.22,0,77.563,0
				C66.306,0,57.144,9.162,57.144,20.419c0,6.305,2.133,12.529,6.01,17.514L90.63,73.257c-0.1,0.962-0.152,1.943-0.152,2.933v38.095
				H52.382v-9.524h23.81V76.19H61.906v-5.638c5.529-1.971,9.524-7.21,9.524-13.41c0-7.876-6.41-14.286-14.286-14.286
				s-14.286,6.41-14.286,14.286c0,6.2,3.995,11.438,9.524,13.41v5.638H38.096V57.143H23.811v9.524h4.762v9.524h-9.524v28.571h23.81
				v9.767c-4.719,0.471-9.229,1.643-13.443,3.39l-16.525-16.524l-6.733,6.733l14.538,14.538
				c-12.485,8.596-20.695,22.972-20.695,39.239v42.857c0,26.257,21.362,47.619,47.619,47.619h3.867
				c-2.443,4.21-3.867,9.081-3.867,14.286c0,15.757,12.814,28.571,28.571,28.571s28.571-12.814,28.571-28.571
				c0-5.205-1.424-10.076-3.867-14.286h93.448c-2.443,4.21-3.867,9.081-3.867,14.286c0,15.757,12.814,28.571,28.571,28.571
				s28.571-12.814,28.571-28.571c0-5.205-1.424-10.076-3.867-14.286h3.867c26.257,0,47.619-21.362,47.619-47.619v-42.857
				C295.239,135.648,273.877,114.286,247.62,114.286z M209.525,33.333h19.048V39.5c-3.019-0.905-6.214-1.405-9.524-1.405
				s-6.505,0.5-9.524,1.405V33.333z M219.049,47.619c13.129,0,23.81,10.681,23.81,23.81c0,13.129-10.681,23.81-23.81,23.81
				c-13.129,0-23.81-10.681-23.81-23.81C195.239,58.3,205.92,47.619,219.049,47.619z M238.097,98.743v15.543h-38.096V98.743
				c5.405,3.781,11.967,6.019,19.048,6.019C226.13,104.762,232.692,102.524,238.097,98.743z M151.611,14.171
				c2.038-2.91,5.371-4.648,8.924-4.648c6.01,0,10.895,4.886,10.895,10.895c0,4.205-1.424,8.348-4,11.662l-23.467,30.167
				c-3.576-6.371-9.519-11.238-16.633-13.395L151.611,14.171z M119.049,57.142c10.505,0,19.048,8.543,19.048,19.048v19.048h-4.762
				v9.524h4.762v9.524h-38.096v-9.524h23.81v-9.524h-23.81V76.19C100.001,65.685,108.544,57.142,119.049,57.142z M70.672,32.086
				c-2.581-3.319-4.005-7.462-4.005-11.667c0-6.01,4.886-10.895,10.895-10.895c3.552,0,6.886,1.738,8.924,4.648l24.281,34.686
				c-7.114,2.162-13.057,7.029-16.633,13.395L70.672,32.086z M57.144,52.381c2.629,0,4.762,2.133,4.762,4.762
				c0,2.629-2.133,4.762-4.762,4.762s-4.762-2.133-4.762-4.762C52.382,54.514,54.515,52.381,57.144,52.381z M28.572,95.238v-9.524
				h38.095v9.524H28.572z M76.191,285.714c-10.505,0-19.048-8.543-19.048-19.048s8.543-19.048,19.048-19.048
				s19.048,8.543,19.048,19.048C95.239,277.171,86.696,285.714,76.191,285.714z M219.049,285.714
				c-10.505,0-19.048-8.543-19.048-19.048s8.543-19.048,19.048-19.048s19.048,8.543,19.048,19.048
				C238.096,277.171,229.553,285.714,219.049,285.714z M247.62,242.857h-12.81c-4.524-3.005-9.938-4.762-15.762-4.762
				s-11.238,1.757-15.762,4.762H91.953c-4.524-3.005-9.938-4.762-15.762-4.762c-5.824,0-11.238,1.757-15.762,4.762h-12.81
				c-21.005,0-38.095-17.09-38.095-38.095v-42.857c0-21.005,17.09-38.095,38.095-38.095h42.857h57.143h100
				c21.005,0,38.095,17.09,38.095,38.095v42.857h0.001C285.715,225.767,268.625,242.857,247.62,242.857z"/>
			<circle cx="76.191" cy="266.667" r="4.762"/>
			<circle cx="219.049" cy="266.667" r="4.762"/>
			<circle cx="119.049" cy="71.429" r="4.762"/>
			<rect x="204.763" y="57.143" width="28.571" height="9.524"/>
			<rect x="204.763" y="76.19" width="28.571" height="9.524"/>
			<rect x="38.096" y="138.095" width="161.905" height="9.524"/>
			<rect x="209.525" y="138.095" width="23.81" height="9.524"/>
			<path d="M85.715,223.81h123.81v-66.667H85.715V223.81z M95.239,166.667h104.762v47.619H95.239V166.667z"/>
			<rect x="104.763" y="176.19" width="85.714" height="9.524"/>
		</g>
	</g>
</g>
<g>
</g>
<g>
</g>
<g>
</g>
<g>
</g>
<g>
</g>
<g>
</g>
<g>
</g>
<g>
</g>
<g>
</g>
<g>
</g>
<g>
</g>
<g>
</g>
<g>
</g>
<g>
</g>
<g>
</g>
</svg>
