<?xml version="1.0" encoding="iso-8859-1"?>
<!-- Generator: Adobe Illustrator 19.0.0, SVG Export Plug-In . SVG Version: 6.00 Build 0)  -->
<svg version="1.1" id="Layer_1" xmlns="http://www.w3.org/2000/svg" xmlns:xlink="http://www.w3.org/1999/xlink" x="0px" y="0px"
	 viewBox="0 0 295.238 295.238" style="enable-background:new 0 0 295.238 295.238;" xml:space="preserve">
<g>
	<g>
		<g>
			<path d="M244.828,9.524h-49.59v31.362l-26.6-26.6H78.981l-26.6,26.6V23.81H23.81V100H9.524V47.62H0v114.286h9.524v-52.381H23.81
				v98.871C9.79,214.762,0,228.862,0,245.238c0,22.319,18.157,40.476,40.476,40.476c22.319,0,40.476-18.157,40.476-40.476
				c0-12.41-5.624-23.524-14.448-30.952H195.4c-8.824,7.429-14.448,18.543-14.448,30.952c0,22.319,18.157,40.476,40.476,40.476
				c22.319,0,40.476-18.157,40.476-40.476c0-18.176-12.043-33.59-28.571-38.686v-11.314h61.905v0V59.933L244.828,9.524z
				 M52.381,54.353L82.924,23.81h81.771l30.543,30.543v26.6h-9.524c0-23.629-19.229-42.857-42.857-42.857h-38.095
				c-23.629,0-42.857,19.229-42.857,42.857h-9.524V54.353z M175.1,138.095l-20.41,28.571H92.929l-20.41-28.571h70.338v-9.524H71.429
				V90.477H176.19v38.095h-23.81v9.524H175.1z M71.429,80.953c0-18.381,14.952-33.333,33.333-33.333h38.095
				c18.381,0,33.333,14.952,33.333,33.333H71.429z M52.381,90.477h9.524v49.143l26.119,36.571h71.567l26.124-36.571V90.477h9.524
				v95.238H52.381V90.477z M71.429,245.238c0,17.067-13.886,30.952-30.952,30.952c-17.066,0-30.953-13.885-30.953-30.952
				c0-17.067,13.886-30.952,30.952-30.952C57.542,214.286,71.429,228.172,71.429,245.238z M33.333,204.763L33.333,204.763v-95.238
				V100V33.334h9.524v161.905H223.81v9.524H33.333z M252.381,245.238c0,17.067-13.886,30.952-30.952,30.952
				s-30.952-13.886-30.952-30.952c0-17.066,13.886-30.952,30.952-30.952S252.381,228.172,252.381,245.238z M233.333,185.714h-4.762
				h-23.81V54.011L236.8,185.714H233.333z M285.714,185.714H246.6L206.057,19.048h34.829l44.828,44.828V185.714z"/>
			<rect x="242.857" y="76.19" width="28.571" height="9.524"/>
			<rect x="242.857" y="95.238" width="28.571" height="9.524"/>
			<rect x="242.857" y="114.287" width="28.571" height="9.524"/>
			<path d="M40.476,228.571c-9.191,0-16.667,7.476-16.667,16.667c0,9.191,7.477,16.667,16.667,16.667s16.667-7.476,16.667-16.667
				C57.143,236.047,49.667,228.571,40.476,228.571z M40.476,252.381c-3.938,0-7.143-3.205-7.143-7.143
				c0-3.938,3.205-7.143,7.143-7.143s7.143,3.205,7.143,7.143C47.619,249.177,44.414,252.381,40.476,252.381z"/>
			<path d="M204.762,245.238c0,9.19,7.476,16.667,16.667,16.667c9.191,0,16.667-7.476,16.667-16.667
				c0-9.191-7.476-16.667-16.667-16.667C212.238,228.571,204.762,236.048,204.762,245.238z M228.571,245.238
				c0,3.938-3.205,7.143-7.143,7.143c-3.938,0-7.143-3.205-7.143-7.143c0-3.938,3.205-7.143,7.143-7.143
				C225.366,238.095,228.571,241.3,228.571,245.238z"/>
		</g>
	</g>
</g>
<g>
</g>
<g>
</g>
<g>
</g>
<g>
</g>
<g>
</g>
<g>
</g>
<g>
</g>
<g>
</g>
<g>
</g>
<g>
</g>
<g>
</g>
<g>
</g>
<g>
</g>
<g>
</g>
<g>
</g>
</svg>
