<?xml version="1.0" encoding="iso-8859-1"?>
<!-- Generator: Adobe Illustrator 19.0.0, SVG Export Plug-In . SVG Version: 6.00 Build 0)  -->
<svg version="1.1" id="Layer_1" xmlns="http://www.w3.org/2000/svg" xmlns:xlink="http://www.w3.org/1999/xlink" x="0px" y="0px"
	 viewBox="0 0 295.619 295.619" style="enable-background:new 0 0 295.619 295.619;" xml:space="preserve">
<g>
	<g>
		<g>
			<path d="M67.048,97.81v4.762c0,5.252,4.271,9.524,9.524,9.524h94.695l61.381,14.167L248,126.381
				c26.257,0,47.619-21.362,47.619-47.619c0-26.257-21.362-47.619-47.619-47.619H76.571c-5.252,0-9.524,4.271-9.524,9.524H11.724
				L0,64.11l11.233,33.7H67.048z M17.61,50.191h58.961V50.19v-9.524H248c21.005,0,38.095,17.09,38.095,38.095
				s-17.09,38.095-38.095,38.095V102.57h-9.524v14.286h-4.219l-5.305-1.224V102.57h-9.524v10.862l-9.524-2.2v-8.662h-9.524v6.467
				l-9.524-2.2v-4.267h-9.524v2.071l-8.452-1.952l-96.31-0.119V88.286H18.1l-1.586-4.762h183.867c0,5.252,4.271,9.524,9.524,9.524
				h57.143c5.252,0,9.524-4.271,9.524-9.524V74c0-15.757-12.814-28.571-28.571-28.571h-38.095c-5.252,0-9.524,4.271-9.524,9.524
				H15.229L17.61,50.191z M209.905,83.524V54.952h9.524v28.572H209.905z M228.952,83.524V54.952h9.524v28.572H228.952z M248,83.524
				V54.952c10.505,0,19.048,8.543,19.048,19.048l0.01,9.524H248z M10.472,64.476h189.91V74H13.338l-3.052-9.157L10.472,64.476z"/>
			<path d="M10.533,197.81h249.538l25.395-38.095H35.929L10.533,197.81z M267.681,169.238l-12.705,19.048h-36.171l12.7-19.048
				H267.681z M220.052,169.238l-12.7,19.048H194.99l12.7-19.048H220.052z M196.248,169.238l-12.7,19.048h-12.362l12.7-19.048
				H196.248z M172.438,169.238l-12.7,19.048h-12.362l12.7-19.048H172.438z M148.629,169.238l-12.7,19.048h-12.362l12.7-19.048
				H148.629z M124.819,169.238l-12.7,19.048H99.757l12.7-19.048H124.819z M101.01,169.238l-12.7,19.048H75.948l12.7-19.048H101.01z
				 M77.2,169.238l-12.7,19.048H52.138l12.7-19.048H77.2z M53.39,169.238l-12.7,19.048H28.324l12.7-19.048H53.39z"/>
			<circle cx="243.238" cy="178.762" r="4.762"/>
			<path d="M10.533,264.476h249.538l25.395-38.095H35.929L10.533,264.476z M267.681,235.904l-12.705,19.048h-36.171l12.7-19.048
				H267.681z M220.052,235.905l-12.7,19.048H194.99l12.7-19.048H220.052z M196.248,235.904l-12.7,19.048h-12.362l12.7-19.048
				H196.248z M172.438,235.904l-12.7,19.048h-12.362l12.7-19.048H172.438z M148.629,235.904l-12.7,19.048h-12.362l12.7-19.048
				H148.629z M124.819,235.904l-12.7,19.048H99.757l12.7-19.048H124.819z M101.01,235.904l-12.7,19.048H75.948l12.7-19.048H101.01z
				 M77.2,235.904l-12.7,19.048H52.138l12.7-19.048H77.2z M53.39,235.905l-12.7,19.048H28.324l12.7-19.048H53.39z"/>
			<circle cx="243.238" cy="245.429" r="4.762"/>
		</g>
	</g>
</g>
<g>
</g>
<g>
</g>
<g>
</g>
<g>
</g>
<g>
</g>
<g>
</g>
<g>
</g>
<g>
</g>
<g>
</g>
<g>
</g>
<g>
</g>
<g>
</g>
<g>
</g>
<g>
</g>
<g>
</g>
</svg>
