<?xml version="1.0" encoding="iso-8859-1"?>
<!-- Generator: Adobe Illustrator 19.0.0, SVG Export Plug-In . SVG Version: 6.00 Build 0)  -->
<svg version="1.1" id="Layer_1" xmlns="http://www.w3.org/2000/svg" xmlns:xlink="http://www.w3.org/1999/xlink" x="0px" y="0px"
	 viewBox="0 0 295.241 295.241" style="enable-background:new 0 0 295.241 295.241;" xml:space="preserve">
<g>
	<g>
		<g>
			<polygon points="38.096,23.81 9.525,23.81 9.525,0 0.001,0 0.001,295.238 9.525,295.238 9.525,33.333 38.096,33.333 
				38.096,38.095 47.62,38.095 47.62,19.048 38.096,19.048 			"/>
			<path d="M214.288,242.859v4.762c0,7.876-6.41,14.286-14.286,14.286h-35.005c1.038-2.171,1.671-4.576,1.671-7.143
				c0-4.667-1.938-8.876-5.038-11.905c3.1-3.029,5.038-7.238,5.038-11.905s-1.938-8.876-5.038-11.905
				c3.1-3.029,5.038-7.238,5.038-11.905s-1.938-8.876-5.038-11.905c3.1-3.029,5.038-7.238,5.038-11.905
				c0-2.567-0.633-4.971-1.671-7.143h13.167l-16.257-16.257v-33.895c0.556,0.385,1.08,0.823,1.565,1.304l48.843,48.848h82.924
				v-9.524h-78.981l-46.052-46.057c-2.333-2.333-5.167-4.019-8.3-5.067v-34.59h3.905l4.762-23.81h4.59
				c6.038,0,11.967,1.643,17.148,4.748l36.167,21.705c2.309,1.386,4.957,2.119,7.652,2.119h1.39c8.195,0,14.862-6.667,14.862-14.862
				c0-3.914-1.586-7.743-4.352-10.51l-29.895-29.895c-13.49-13.49-31.429-20.924-50.51-20.924h-55.31l-4.762,4.762h-5.581
				l-4.761-4.762H61.906v47.619h35.305l4.762-4.762h5.581l4.762,4.762h2.829l4.762,23.81h3.905v85.714h-11.905
				c-9.19,0-16.667,7.476-16.667,16.667c0,4.667,1.938,8.876,5.038,11.905c-3.1,3.029-5.038,7.238-5.038,11.905
				s1.938,8.876,5.038,11.905c-3.1,3.029-5.038,7.238-5.038,11.905s1.938,8.876,5.038,11.905c-3.1,3.029-5.038,7.238-5.038,11.905
				c0,9.19,7.476,16.667,16.667,16.667h11.905v23.81h38.095v-23.81h38.094c11.5,0,21.119-8.195,23.329-19.048h71.91v-9.524H214.288z
				 M152.382,285.714h-19.048v-14.286h14.286h2.381h2.381V285.714z M150.001,261.905h-2.381h-23.81h-11.905
				c-3.938,0-7.143-3.205-7.143-7.143c0-3.938,3.205-7.143,7.143-7.143h38.096c3.938,0,7.143,3.205,7.143,7.143
				S153.939,261.905,150.001,261.905z M150.001,238.095h-38.095c-3.938,0-7.143-3.205-7.143-7.143c0-3.938,3.205-7.143,7.143-7.143
				h38.095c3.938,0.001,7.143,3.205,7.143,7.143C157.144,234.89,153.939,238.095,150.001,238.095z M150.001,214.286h-38.095
				c-3.938,0-7.143-3.205-7.143-7.143s3.205-7.143,7.143-7.143h38.095c3.938,0,7.143,3.205,7.143,7.143
				S153.939,214.286,150.001,214.286z M150.001,190.476h-38.095c-3.938,0-7.143-3.205-7.143-7.143c0-3.938,3.205-7.143,7.143-7.143
				h30.952h7.143c3.938,0,7.143,3.205,7.143,7.143S153.939,190.476,150.001,190.476z M133.334,166.665V80.952h19.048v32.871v50.052
				v2.79h-2.381h-7.143H133.334z M127.715,71.429l-4.762-23.81h-6.695l-4.762-4.762H98.03l-4.762,4.762H71.43V19.048h21.838
				l4.762,4.762h13.467l4.762-4.762h51.367c16.538,0,32.081,6.443,43.771,18.133l29.895,29.895c0.995,0.995,1.567,2.371,1.567,3.776
				c0,2.943-2.395,5.338-5.338,5.338h-1.39c-0.967,0-1.914-0.267-2.748-0.762l-36.176-21.705
				c-6.662-3.995-14.286-6.105-22.048-6.105h-12.395l-4.763,23.811H127.715z"/>
			<rect x="119.049" y="28.571" width="33.333" height="9.524"/>
			<rect x="161.906" y="28.571" width="9.524" height="9.524"/>
		</g>
	</g>
</g>
<g>
</g>
<g>
</g>
<g>
</g>
<g>
</g>
<g>
</g>
<g>
</g>
<g>
</g>
<g>
</g>
<g>
</g>
<g>
</g>
<g>
</g>
<g>
</g>
<g>
</g>
<g>
</g>
<g>
</g>
</svg>
