<?xml version="1.0" encoding="iso-8859-1"?>
<!-- Generator: Adobe Illustrator 19.0.0, SVG Export Plug-In . SVG Version: 6.00 Build 0)  -->
<svg version="1.1" id="Layer_1" xmlns="http://www.w3.org/2000/svg" xmlns:xlink="http://www.w3.org/1999/xlink" x="0px" y="0px"
	 viewBox="0 0 295.238 295.238" style="enable-background:new 0 0 295.238 295.238;" xml:space="preserve">
<g>
	<g>
		<g>
			<path d="M284.419,179.29l-8.229-2.052v-15.333c0-44.752-23.671-86.538-61.905-109.81v-9.238c0-5.252-4.271-9.524-9.524-9.524
				h-14.286c-3.562,0-6.638,1.99-8.271,4.89c-3.752-1.067-7.433-1.948-11.029-2.624c-1.186-6.686-7.01-11.79-14.033-11.79h-19.048
				c-7.024,0-12.848,5.105-14.033,11.79c-3.6,0.681-7.281,1.557-11.029,2.624c-1.633-2.9-4.71-4.89-8.271-4.89H90.476
				c-5.252,0-9.524,4.271-9.524,9.524v9.238c-38.233,23.271-61.905,65.057-61.905,109.81v15.333l-8.229,2.057
				C4.452,180.881,0,186.586,0,193.152v37.843l34.305,24.948c13.929,10.133,30.395,15.486,47.619,15.486h131.4
				c17.224,0,33.69-5.352,47.619-15.486l34.295-24.948v-37.843C295.238,186.586,290.786,180.881,284.419,179.29z M214.286,63.357
				c32.5,22.048,52.381,59.067,52.381,98.548v55.248c-11.09-2-26.486-4.014-47.619-5.471v-73.586c0-8.967-1.733-17.519-4.762-25.433
				V63.357z M190.476,80.952V42.857h14.286v52.562c-4.11-5.49-8.976-10.357-14.467-14.467H190.476z M171.428,45.357
				c3.095,0.648,6.276,1.448,9.524,2.405v27.209c-3.043-1.614-6.238-2.967-9.524-4.133V45.357z M133.333,38.095
				c0-2.628,2.138-4.762,4.762-4.762h19.048c2.624,0,4.762,2.133,4.762,4.762v30.01c-4.619-0.938-9.395-1.438-14.286-1.438
				s-9.667,0.5-14.286,1.438V38.095z M114.286,47.757c3.248-0.962,6.429-1.762,9.524-2.405v25.481
				c-3.286,1.167-6.481,2.519-9.524,4.133V47.757z M90.476,42.857h14.286v38.229c-5.414,4.081-10.219,8.9-14.286,14.333V42.857z
				 M85.714,138.095c0-34.133,27.771-61.905,61.905-61.905c34.134,0,61.905,27.771,61.905,61.905v73
				c-17.114-0.962-37.51-1.571-61.905-1.571c-24.395,0-44.79,0.61-61.905,1.571V138.095z M28.571,161.904
				c0-39.48,19.881-76.499,52.381-98.547v49.305c-3.029,7.914-4.762,16.467-4.762,25.433v73.59
				c-21.133,1.457-36.529,3.467-47.619,5.471V161.904z M9.523,193.148c0.001-2.186,1.487-4.086,3.61-4.619l5.914-1.481v32.038
				c-3.981,0.914-7.11,1.781-9.524,2.543V193.148z M255.333,248.243c-12.29,8.938-26.819,13.662-42.014,13.662h-131.4
				c-15.195,0-29.724-4.724-42.014-13.662l-25.119-18.267c13.981-3.957,50.319-10.929,132.833-10.929
				c82.51,0,118.848,6.976,132.824,10.933L255.333,248.243z M285.715,221.634c-2.414-0.762-5.543-1.629-9.524-2.543v-32.043
				l5.914,1.481c2.124,0.533,3.61,2.433,3.61,4.624V221.634z"/>
			<rect x="95.238" y="142.857" width="9.524" height="57.143"/>
			<rect x="95.238" y="123.81" width="9.524" height="9.524"/>
		</g>
	</g>
</g>
<g>
</g>
<g>
</g>
<g>
</g>
<g>
</g>
<g>
</g>
<g>
</g>
<g>
</g>
<g>
</g>
<g>
</g>
<g>
</g>
<g>
</g>
<g>
</g>
<g>
</g>
<g>
</g>
<g>
</g>
</svg>
