<?xml version="1.0" encoding="iso-8859-1"?>
<!-- Generator: Adobe Illustrator 19.0.0, SVG Export Plug-In . SVG Version: 6.00 Build 0)  -->
<svg version="1.1" id="Layer_1" xmlns="http://www.w3.org/2000/svg" xmlns:xlink="http://www.w3.org/1999/xlink" x="0px" y="0px"
	 viewBox="0 0 295.239 295.239" style="enable-background:new 0 0 295.239 295.239;" xml:space="preserve">
<g>
	<g>
		<g>
			<path d="M257.143,83.333V47.62h-23.81V23.81c0-13.129-10.681-23.81-23.81-23.81h-90.476c-13.129,0-23.81,10.681-23.81,23.81
				v38.095h-4.762v-9.524h-9.524v9.524H76.19v-9.524h-9.524v9.524h-4.762v-9.524H52.38v9.524h-4.762v-9.524h-9.524v9.524h-4.762
				v-23.81H0v257.143h33.333v-23.81h4.762v9.524h9.524v-9.524h4.762v9.524h9.524v-9.524h4.762v9.524h9.524v-9.524h4.762v9.524h9.524
				v-9.524h4.762v9.524h9.524v-9.524h4.762v23.81h33.333V38.095h-33.333v23.81h-4.762V23.81c0-7.876,6.41-14.286,14.286-14.286
				h90.476c7.876,0,14.286,6.41,14.286,14.286v23.81H200v35.714l-38.095,28.571v84.81l66.667,97.433l66.667-97.433v-84.81
				L257.143,83.333z M23.81,61.905V271.43v14.285H9.524V47.62H23.81V61.905z M38.095,261.905h-4.762V71.43h4.762V261.905z
				 M52.381,261.905h-4.762V71.43h4.762V261.905z M66.667,261.905h-4.762V71.43h4.762V261.905z M80.952,261.905H76.19V71.43h4.762
				V261.905z M95.238,261.905h-4.762V71.43h4.762V261.905z M119.048,271.428V61.905V47.62h14.286v238.095h-14.286V271.428z
				 M109.524,71.43v190.476h-4.762V71.43H109.524z M209.524,57.143h38.095v23.81h-38.095V57.143z M206.348,90.477h44.443
				l25.4,19.048h-95.238L206.348,90.477z M228.571,277.281L175.695,200h105.752L228.571,277.281z M285.715,190.477H171.429v-71.429
				h114.286V190.477z"/>
			<rect x="180.952" y="128.571" width="76.19" height="9.524"/>
			<rect x="266.667" y="128.571" width="9.524" height="9.524"/>
		</g>
	</g>
</g>
<g>
</g>
<g>
</g>
<g>
</g>
<g>
</g>
<g>
</g>
<g>
</g>
<g>
</g>
<g>
</g>
<g>
</g>
<g>
</g>
<g>
</g>
<g>
</g>
<g>
</g>
<g>
</g>
<g>
</g>
</svg>
