<?xml version="1.0" encoding="iso-8859-1"?>
<!-- Generator: Adobe Illustrator 19.0.0, SVG Export Plug-In . SVG Version: 6.00 Build 0)  -->
<svg version="1.1" id="Layer_1" xmlns="http://www.w3.org/2000/svg" xmlns:xlink="http://www.w3.org/1999/xlink" x="0px" y="0px"
	 viewBox="0 0 295.238 295.238" style="enable-background:new 0 0 295.238 295.238;" xml:space="preserve">
<g>
	<g>
		<g>
			<path d="M197.467,60.695l-82.438-13.014l-29.314-0.062c-10.505,0-19.048,8.543-19.048,19.048v23.81
				c0,10.505,8.543,19.048,19.048,19.048h109.524c7.875-0.001,14.285-6.411,14.285-14.287V74.805
				C209.524,67.729,204.453,61.795,197.467,60.695z M200,95.238c0,2.624-2.133,4.762-4.762,4.762H85.714
				c-5.252,0-9.524-4.271-9.524-9.524v-23.81c0-5.252,4.271-9.524,9.524-9.524h28.2L195.976,70.1h0.005
				c2.329,0.367,4.019,2.348,4.019,4.705V95.238z"/>
			<rect x="71.429" y="128.571" width="9.524" height="47.619"/>
			<rect x="90.476" y="128.571" width="9.524" height="47.619"/>
			<path d="M280.952,142.857l-33.333,4.138V76.414c0-30.033-21.457-55.662-51.024-60.938L118.667,1.557
				C112.89,0.524,106.976,0,101.09,0H61.906C38.271,0,19.048,19.229,19.048,42.857v161.905h9.524v4.762H0v9.524h28.571v76.19h9.524
				v-4.762h4.762v-9.524h-4.762v-4.762h4.762v-9.524h-4.762v-4.762h4.762v-9.524h-4.762v-4.762h4.762v-9.524h-4.762v-4.762h4.762
				v-9.524h-4.762v-4.762h157.143v-9.524H38.096v-4.762h195.238c6.014,0,11.148-3.748,13.252-9.019l33.776,4.224l0.59,0.033
				c7.876,0,14.286-6.41,14.286-14.286v-28.571C295.238,149.267,288.829,142.857,280.952,142.857z M42.857,195.238H28.571v-47.619
				h14.286V195.238z M238.096,119.048H200v9.524h38.095v9.524H200v9.524h38.095v0.557v8.967H200v9.524h38.095v9.524H200v9.524
				h38.095v4.762c0,2.622-2.133,4.76-4.762,4.76H52.381v-57.143h-23.81V42.857c0-18.381,14.957-33.333,33.333-33.333h39.186
				c5.324,0,10.676,0.476,15.905,1.41l77.929,13.914c25.019,4.467,43.171,26.152,43.171,51.567V119.048z M285.714,185.714
				c0,2.543-2.005,4.629-4.514,4.757l-33.581-4.2v-29.686l33.581-4.195c2.509,0.124,4.514,2.21,4.514,4.752V185.714z"/>
			<path d="M76.19,28.571c0-7.876-6.41-14.286-14.286-14.286c-7.876,0-14.286,6.41-14.286,14.286c0,7.876,6.41,14.286,14.286,14.286
				C69.781,42.857,76.19,36.448,76.19,28.571z M61.906,33.333c-2.629,0-4.762-2.138-4.762-4.762c0-2.624,2.133-4.762,4.762-4.762
				c2.629,0,4.762,2.138,4.762,4.762C66.667,31.195,64.533,33.333,61.906,33.333z"/>
			<path d="M176.19,123.81h-52.38c-7.876,0-14.286,6.41-14.286,14.286v28.571c0,7.876,6.41,14.286,14.286,14.286h52.381
				c7.876,0,14.286-6.41,14.286-14.286v-28.571C190.476,130.219,184.067,123.81,176.19,123.81z M180.953,166.667L180.953,166.667
				c-0.001,2.624-2.134,4.762-4.763,4.762h-52.38c-2.629,0-4.762-2.138-4.762-4.762v-28.571c0-2.624,2.133-4.762,4.762-4.762h52.381
				c2.629,0,4.762,2.138,4.762,4.762V166.667z"/>
		</g>
	</g>
</g>
<g>
</g>
<g>
</g>
<g>
</g>
<g>
</g>
<g>
</g>
<g>
</g>
<g>
</g>
<g>
</g>
<g>
</g>
<g>
</g>
<g>
</g>
<g>
</g>
<g>
</g>
<g>
</g>
<g>
</g>
</svg>
