<?xml version="1.0" encoding="iso-8859-1"?>
<!-- Generator: Adobe Illustrator 19.0.0, SVG Export Plug-In . SVG Version: 6.00 Build 0)  -->
<svg version="1.1" id="Layer_1" xmlns="http://www.w3.org/2000/svg" xmlns:xlink="http://www.w3.org/1999/xlink" x="0px" y="0px"
	 viewBox="0 0 297.595 297.595" style="enable-background:new 0 0 297.595 297.595;" xml:space="preserve">
<g>
	<g>
		<path d="M158.321,0v14.286h-19.048V0H59.321l41.857,68.014v110.781c0,42.49,15.657,83.286,44.081,114.867l3.538,3.933l3.538-3.933
			c28.424-31.581,44.081-72.376,44.081-114.867V68.014L238.274,0H158.321z M186.892,109.715v15.262l-76.19,21.767v-15.258
			L186.892,109.715z M110.702,121.575v-15.261l76.19-21.767v15.257L110.702,121.575z M186.892,134.885v15.262l-76.19,21.767v-15.262
			L186.892,134.885z M148.798,283.229c-2.59-3.076-5.029-6.257-7.371-9.5l18.381-5.252
			C156.421,273.567,152.769,278.505,148.798,283.229z M167.04,256.5l-31.252,8.933c-2.7-4.267-5.176-8.652-7.457-13.133
			l47.01-13.429C172.931,244.9,170.16,250.786,167.04,256.5z M179.321,227.824l-55.1,15.743c-1.962-4.505-3.724-9.09-5.267-13.752
			l64.614-18.467C182.426,216.914,181.031,222.419,179.321,227.824z M185.369,200.924l-69.171,19.767
			c-1.262-4.729-2.305-9.524-3.133-14.367l73.686-21.057C186.54,190.524,186.079,195.748,185.369,200.924z M186.893,175.314
			L111.74,196.79c-0.552-4.957-0.876-9.957-0.971-14.986l76.124-21.748V175.314z M188.993,61.905h-11.624v9.524h9.524v3.21
			l-76.19,21.767V71.429h57.143v-9.524h-59.243L76.369,9.524h53.381V23.81h38.095V9.524h53.381L188.993,61.905z"/>
	</g>
</g>
<g>
</g>
<g>
</g>
<g>
</g>
<g>
</g>
<g>
</g>
<g>
</g>
<g>
</g>
<g>
</g>
<g>
</g>
<g>
</g>
<g>
</g>
<g>
</g>
<g>
</g>
<g>
</g>
<g>
</g>
</svg>
