<?xml version="1.0" encoding="iso-8859-1"?>
<!-- Generator: Adobe Illustrator 19.0.0, SVG Export Plug-In . SVG Version: 6.00 Build 0)  -->
<svg version="1.1" id="Layer_1" xmlns="http://www.w3.org/2000/svg" xmlns:xlink="http://www.w3.org/1999/xlink" x="0px" y="0px"
	 viewBox="0 0 295.238 295.238" style="enable-background:new 0 0 295.238 295.238;" xml:space="preserve">
<g>
	<g>
		<g>
			<rect x="66.945" y="66.667" width="9.524" height="38.095"/>
			<rect x="66.945" y="47.619" width="9.524" height="9.524"/>
			<path d="M266.945,171.429h-28.571V42.857c7.876,0,14.286-6.41,14.286-14.286V0h-57.143v28.571c0,7.876,6.41,14.286,14.286,14.286
				v128.571h-28.571c-7.876,0-14.286,6.41-14.286,14.286v28.29c0,21.843,8.11,42.538,22.843,58.267
				c14.471,15.457,25.69,22.967,34.3,22.967c8.61,0,19.829-7.51,34.3-22.962c14.733-15.733,22.843-36.424,22.843-58.271v-28.29
				C281.231,177.838,274.821,171.429,266.945,171.429z M205.039,9.524h38.096v4.762h-38.096V9.524z M209.802,33.334
				c-2.628-0.001-4.762-2.139-4.762-4.763V23.81h38.095v4.762c0,2.624-2.133,4.762-4.762,4.762H209.802z M219.326,61.905V42.857
				h9.524v19.048H219.326z M228.85,71.429v100h-9.524v-100H228.85z M251.44,265.762c-16.871,18.01-24.748,19.952-27.352,19.952
				s-10.481-1.943-27.348-19.948c-13.071-13.962-20.271-32.343-20.271-51.762v-28.29c0-2.624,2.133-4.762,4.762-4.762h28.571h28.571
				h28.571c2.629,0,4.762,2.138,4.762,4.762v28.291h0.001C271.707,233.424,264.507,251.805,251.44,265.762z"/>
			<rect x="219.326" y="190.476" width="9.524" height="38.095"/>
			<rect x="219.326" y="238.095" width="9.524" height="9.524"/>
			<path d="M24.088,90.738v23.548c0,5.252,4.271,9.524,9.524,9.524h23.81v128.571c-7.876,0-14.286,6.41-14.286,14.286v28.571h57.143
				v-28.571c0-7.876-6.41-14.286-14.286-14.286V123.81h23.81c5.252,0,9.524-4.271,9.524-9.524V90.738L129.406,0h-115.4
				L24.088,90.738z M27.288,33.376l15.848,34.338v21.324l-9.524,14.286V90.476L27.288,33.376z M90.755,285.714H52.659v-4.762h38.095
				V285.714z M90.755,266.667v4.762H52.659v-4.762c0-2.624,2.133-4.762,4.762-4.762h28.571
				C88.621,261.905,90.755,264.043,90.755,266.667z M76.469,233.333v19.048h-9.524v-19.048H76.469z M66.945,223.81v-100h9.524v100
				H66.945z M109.831,89.952l-0.014,13.386l-9.538-14.305V67.714l15.838-34.31L109.831,89.952z M116.645,9.524l-25.89,56.095v26.295
				l14.914,22.371H85.992H57.421v0.001H37.745l14.915-22.367v-26.3L26.768,9.524H116.645z"/>
		</g>
	</g>
</g>
<g>
</g>
<g>
</g>
<g>
</g>
<g>
</g>
<g>
</g>
<g>
</g>
<g>
</g>
<g>
</g>
<g>
</g>
<g>
</g>
<g>
</g>
<g>
</g>
<g>
</g>
<g>
</g>
<g>
</g>
</svg>
