<?xml version="1.0" encoding="iso-8859-1"?>
<!-- Generator: Adobe Illustrator 19.0.0, SVG Export Plug-In . SVG Version: 6.00 Build 0)  -->
<svg version="1.1" id="Layer_1" xmlns="http://www.w3.org/2000/svg" xmlns:xlink="http://www.w3.org/1999/xlink" x="0px" y="0px"
	 viewBox="0 0 295.238 295.238" style="enable-background:new 0 0 295.238 295.238;" xml:space="preserve">
<g>
	<g>
		<g>
			<path d="M295.238,19.048h-28.571V9.524h-95.238V4.762h-19.048V0H14.286C6.41,0,0,6.41,0,14.286v31.233
				c0,6.157,3.924,11.605,9.767,13.552l28.752,9.581c2.2,0.733,3.548,2.933,3.205,5.224L28.819,159.89
				c-0.162,1.11-0.248,2.219-0.248,3.333c0,12.405,10.086,22.49,22.49,22.49h1.319v19.048h9.524v66.667
				c0,13.129,10.681,23.81,23.81,23.81h185.714c13.129,0,23.81-10.681,23.81-23.81c0-13.129-10.681-23.81-23.81-23.81H161.905
				c-7.876,0-14.286-6.41-14.286-14.286v-86.195c10.852-2.214,19.048-11.829,19.048-23.329V100h-9.524V85.714h-9.524V100h-9.524
				V85.714h-9.524V100h-9.524v23.81c0,11.495,8.195,21.114,19.048,23.329v86.195c0,13.129,10.681,23.81,23.81,23.81h109.524
				c7.876,0,14.286,6.41,14.286,14.286c0,7.876-6.41,14.286-14.286,14.286H85.714c-7.876,0-14.286-6.41-14.286-14.286v-66.667h9.524
				v-19.395C91.714,183.695,100,174.448,100,163.224v-59.157c0-3.629,2.019-6.895,5.262-8.519l13.786-6.89V56.51l33.333-4.762v-8.89
				h19.048v-4.762h95.238v-9.524h28.571V19.048z M142.856,138.096c-7.876,0-14.285-6.41-14.285-14.286v-14.286h28.571v14.286
				C157.142,131.686,150.732,138.096,142.856,138.096z M71.429,195.238h-9.524v-9.524h9.524V195.238z M142.858,43.49h-0.001
				l-33.333,4.762v34.519l-8.519,4.262c-6.49,3.243-10.529,9.771-10.529,17.033v59.157c0,7.148-5.819,12.967-12.967,12.967H52.381
				h-1.319c-7.148,0-12.967-5.819-12.967-12.967c0-0.643,0.048-1.29,0.143-1.919l12.905-86.019
				c1.029-6.876-3.019-13.467-9.614-15.671l-28.752-9.581c-1.948-0.648-3.252-2.462-3.252-4.514V14.286
				c0-2.624,2.133-4.762,4.762-4.762h128.571V43.49z M161.905,33.333h-9.524V14.286h9.524V33.333z M257.143,28.571h-85.714v-9.524
				h85.714V28.571z"/>
			<path d="M28.571,47.619c7.876,0,14.286-6.41,14.286-14.286c0-7.876-6.41-14.286-14.286-14.286
				c-7.876,0-14.286,6.41-14.286,14.286C14.285,41.209,20.695,47.619,28.571,47.619z M28.571,28.571
				c2.629,0,4.762,2.138,4.762,4.762c0,2.624-2.133,4.762-4.762,4.762c-2.629,0-4.762-2.138-4.762-4.762
				C23.81,30.71,25.943,28.571,28.571,28.571z"/>
			<rect x="71.429" y="109.524" width="9.524" height="38.095"/>
			<rect x="71.429" y="157.143" width="9.524" height="9.524"/>
			<path d="M233.333,128.571c-26.257,0-47.619,21.362-47.619,47.619s21.362,47.619,47.619,47.619s47.619-21.362,47.619-47.619
				V85.714h-9.524v62.029C262.738,136.133,248.919,128.571,233.333,128.571z M233.333,214.286c-21.005,0-38.095-17.09-38.095-38.095
				s17.09-38.095,38.095-38.095s38.095,17.09,38.095,38.095S254.338,214.286,233.333,214.286z"/>
			<path d="M233.333,152.381c-13.129,0-23.81,10.681-23.81,23.81c0,13.129,10.682,23.809,23.81,23.809s23.81-10.681,23.81-23.81
				C257.143,163.061,246.462,152.381,233.333,152.381z M233.333,190.476c-7.876,0-14.286-6.41-14.286-14.286
				s6.41-14.286,14.286-14.286s14.286,6.41,14.286,14.286S241.21,190.476,233.333,190.476z"/>
		</g>
	</g>
</g>
<g>
</g>
<g>
</g>
<g>
</g>
<g>
</g>
<g>
</g>
<g>
</g>
<g>
</g>
<g>
</g>
<g>
</g>
<g>
</g>
<g>
</g>
<g>
</g>
<g>
</g>
<g>
</g>
<g>
</g>
</svg>
