<?xml version="1.0" encoding="iso-8859-1"?>
<!-- Generator: Adobe Illustrator 19.0.0, SVG Export Plug-In . SVG Version: 6.00 Build 0)  -->
<svg version="1.1" id="Layer_1" xmlns="http://www.w3.org/2000/svg" xmlns:xlink="http://www.w3.org/1999/xlink" x="0px" y="0px"
	 viewBox="0 0 295.238 295.238" style="enable-background:new 0 0 295.238 295.238;" xml:space="preserve">
<g>
	<g>
		<path d="M271.432,176.19h-4.762c-13.129,0-23.81,10.681-23.81,23.81h-22.4l-0.871-6.11c-0.667-4.662-4.719-8.176-9.429-8.176
			h-5.395v-14.286h14.286v-42.857h-14.286v-19.048h14.286v-76.19C219.05,14.952,204.099,0,185.717,0h-76.19
			C91.146,0,76.194,14.952,76.194,33.333v76.19H90.48v19.048H76.194v42.857H90.48v14.286h-5.395c-4.71,0-8.762,3.514-9.424,8.176
			L74.784,200h-22.4c0-13.129-10.681-23.81-23.81-23.81h-4.762c-13.129,0-23.81,10.681-23.81,23.81v33.333
			c0,13.129,10.681,23.81,23.81,23.81h4.762c11.5,0,21.119-8.195,23.329-19.048h17.438l-2.043,14.286H57.146v42.857h180.952v-42.857
			h-10.157l-2.043-14.286h17.438c2.21,10.852,11.833,19.048,23.329,19.048h4.762c13.129,0,23.81-10.681,23.81-23.81V200
			C295.241,186.871,284.561,176.19,271.432,176.19z M85.717,100V76.19H190.48v-9.524H85.717V33.333
			c0-7.748,3.776-14.576,9.524-18.924v23.686h9.524v-28.09c1.538-0.314,3.133-0.481,4.762-0.481h4.762v28.571h9.524V9.524h9.524
			v28.571h9.524V9.524h9.524v28.571h9.524V9.524h9.524v28.571h9.524V9.524h4.762c1.629,0,3.224,0.167,4.762,0.481v28.09h9.524V14.41
			c5.748,4.348,9.524,11.176,9.524,18.924v33.333h-9.524v9.524h9.524V100h-4.762H90.48H85.717z M100.005,109.524h14.284v14.286
			h9.524v-14.286h19.048v14.286h9.524v-14.286h19.048v14.286h9.524v-14.286h14.286v19.048h-95.238V109.524z M85.717,161.905v-23.81
			h4.762h114.286h4.762v23.81h-4.762H90.48H85.717z M195.24,171.429v14.286h-95.238v-14.286H195.24z M85.084,195.238h5.395h114.286
			h5.395l8.162,57.143h-18.876l-3.719-29.752c-0.595-4.757-4.657-8.343-9.452-8.343H166.67h-38.095H108.97
			c-4.795,0-8.857,3.586-9.448,8.343l-3.724,29.752H76.922L85.084,195.238z M142.86,242.858v9.523h-37.462l3.571-28.571h19.605
			v19.048H142.86z M138.097,233.333v-9.524h19.048v9.524H138.097z M152.383,242.857h14.286V223.81h19.605l3.571,28.571h-37.462
			V242.857z M42.86,228.572v4.761c0,7.876-6.41,14.286-14.286,14.286h-4.762c-7.876,0-14.286-6.41-14.286-14.286V200
			c0-7.876,6.41-14.286,14.286-14.286h4.762c7.876,0,14.286,6.41,14.286,14.286v9.524h30.567l-2.719,19.048H42.86z M228.575,261.904
			v23.81H66.67v-23.81H228.575z M285.718,233.333c0,7.876-6.41,14.286-14.286,14.286h-4.762c-7.876,0-14.286-6.41-14.286-14.286
			v-4.762H224.54l-2.719-19.048h30.562V200c0-7.876,6.41-14.286,14.286-14.286h4.762c7.876,0,14.286,6.41,14.286,14.286V233.333z"/>
	</g>
</g>
<g>
</g>
<g>
</g>
<g>
</g>
<g>
</g>
<g>
</g>
<g>
</g>
<g>
</g>
<g>
</g>
<g>
</g>
<g>
</g>
<g>
</g>
<g>
</g>
<g>
</g>
<g>
</g>
<g>
</g>
</svg>
